<?xml version="1.0" standalone="no"?>
<!DOCTYPE svg PUBLIC "-//W3C//DTD SVG 20010904//EN"
 "http://www.w3.org/TR/2001/REC-SVG-20010904/DTD/svg10.dtd">
<svg version="1.0" xmlns="http://www.w3.org/2000/svg"
 width="256.000000pt" height="256.000000pt" viewBox="0 0 256.000000 256.000000"
 preserveAspectRatio="xMidYMid meet">

<g transform="translate(0.000000,256.000000) scale(0.100000,-0.100000)"
fill="#000000" stroke="none">
<path d="M1802 2183 c-40 -35 -52 -51 -52 -74 0 -19 -5 -29 -15 -29 -10 0 -15
10 -15 30 0 29 -2 30 -44 30 -41 0 -45 2 -48 28 l-3 27 -347 3 -348 2 0 -25
c0 -20 -5 -25 -25 -25 -22 0 -24 -4 -27 -57 l-3 -58 -45 40 c-99 88 -83 85
-144 27 -30 -29 -61 -52 -68 -52 -7 0 -43 -29 -81 -65 l-67 -64 0 -90 0 -90
-37 -3 c-37 -3 -38 -4 -41 -44 -3 -35 -12 -49 -62 -99 l-60 -59 0 -141 0 -140
66 -54 66 -53 -46 -47 c-60 -61 -63 -101 -11 -151 19 -18 32 -37 29 -41 -2 -4
0 -10 6 -14 5 -3 10 -24 10 -46 0 -32 7 -47 40 -83 37 -40 40 -48 40 -100 l0
-56 -35 0 c-42 0 -48 -15 -43 -110 l3 -65 40 -5 c38 -5 40 -7 43 -42 2 -25 8
-38 18 -38 9 0 14 -11 14 -31 0 -18 7 -37 17 -44 9 -7 17 -26 18 -41 l0 -29
102 -3 102 -3 3 38 c3 38 3 38 51 41 l47 3 0 69 0 69 48 3 c47 3 47 3 50 41 3
35 5 37 37 37 32 0 34 2 37 38 5 66 31 55 153 -68 74 -74 117 -110 132 -110
36 0 90 55 98 100 6 36 9 39 43 42 35 3 37 5 37 38 l0 35 69 3 c74 3 102 -10
108 -52 2 -11 10 -21 18 -22 8 -1 21 -2 28 -2 7 -1 12 -17 12 -42 0 -36 3 -40
24 -40 15 0 35 -13 54 -34 16 -19 38 -36 48 -38 14 -2 20 -13 22 -40 2 -26 9
-37 23 -41 11 -3 19 -11 18 -19 -6 -47 -3 -49 79 -46 l77 3 3 32 c3 30 5 32
50 35 45 3 47 4 50 36 3 30 6 32 43 32 38 0 39 1 39 34 0 26 -7 40 -30 59 -27
23 -29 31 -32 98 l-3 74 -37 3 c-33 3 -38 7 -38 28 0 20 5 24 30 24 28 0 30 2
30 40 l0 40 40 0 40 0 0 125 0 125 55 0 55 0 0 204 0 205 -27 3 c-27 3 -28 5
-31 75 -3 65 -5 72 -25 75 -15 2 -23 11 -25 28 -2 14 -17 39 -34 57 l-30 31
-6 151 -5 150 -31 3 c-30 3 -31 5 -34 56 -3 48 -5 52 -28 52 -21 0 -24 5 -24
35 l0 35 -56 0 c-51 0 -61 4 -103 39 l-47 39 -52 -45z m-202 -113 l0 -40 43 0
c35 0 49 -6 72 -30 20 -21 38 -30 60 -30 41 0 55 16 55 62 l0 38 80 0 c44 0
80 -3 80 -7 0 -4 -10 -17 -22 -31 -14 -14 -23 -36 -23 -55 0 -31 -1 -32 -47
-35 l-48 -3 0 -45 0 -44 39 0 c22 0 42 -4 45 -9 3 -4 6 -33 7 -62 2 -88 0 -86
89 -94 l80 -7 0 -52 c0 -28 3 -81 6 -118 l7 -67 36 -3 36 -3 3 -87 3 -88 -46
0 -45 0 0 40 c0 40 0 40 -39 40 -47 0 -51 8 -51 100 l0 69 -37 3 -38 3 -9 83
-9 82 -138 0 -139 0 0 -80 0 -80 -35 0 c-34 0 -35 -1 -35 -39 0 -38 -1 -39
-45 -45 -45 -7 -45 -8 -45 -47 0 -37 -2 -39 -30 -39 -29 0 -30 -2 -30 -45 l0
-45 -45 0 -45 0 0 -39 0 -40 -47 -3 -48 -3 -3 -42 -3 -43 -45 0 -44 0 0 -40
c0 -40 0 -40 -39 -40 -40 0 -40 0 -43 -42 -3 -43 -3 -43 -45 -46 -43 -3 -43
-3 -43 -43 l0 -39 -45 0 -45 0 0 -40 0 -40 -45 0 -45 0 0 -39 c0 -40 0 -40
-42 -43 l-43 -3 -9 -77 -9 -78 -89 0 -88 0 0 39 c0 36 3 40 28 43 23 3 27 8
30 40 3 33 7 38 28 38 21 0 24 4 24 40 l0 40 40 0 c39 0 40 1 40 34 0 34 1 35
43 38 41 3 42 4 47 43 5 39 6 40 48 43 42 3 42 3 42 43 l0 39 45 0 45 0 0 45
0 45 45 0 45 0 0 40 c0 40 0 40 39 40 40 0 40 0 43 43 l3 42 48 3 47 3 0 45 0
46 43 -4 42 -3 3 43 3 42 44 0 43 0 7 85 7 85 44 0 44 0 0 40 0 40 60 0 60 0
0 45 c0 37 -3 45 -19 45 -16 0 -20 11 -26 85 l-7 85 -84 0 -84 0 0 40 0 40
-180 0 -180 0 0 -40 0 -40 -45 0 -45 0 0 78 c0 43 3 82 7 85 3 4 143 7 310 7
l303 0 0 -40z m-739 -136 l99 -85 0 -79 0 -79 -37 -3 c-37 -3 -38 -4 -41 -47
-3 -38 -6 -42 -24 -38 -12 3 -34 3 -49 0 -26 -5 -29 -9 -29 -47 0 -41 -3 -45
-142 -177 -78 -73 -145 -134 -149 -134 -4 0 -32 21 -61 46 l-54 47 -2 85 -2
85 63 60 c34 32 81 76 105 97 l42 37 0 77 -1 76 88 82 c48 45 90 83 92 83 2 0
48 -38 102 -86z m551 -131 c30 -29 38 -45 38 -73 0 -33 -8 -44 -82 -112 -46
-42 -86 -80 -90 -83 -4 -4 -52 34 -108 85 -95 88 -100 95 -100 133 0 28 7 48
22 64 20 22 29 23 152 23 l130 0 38 -37z m-344 -211 c41 -3 42 -4 42 -37 0
-32 2 -34 38 -37 34 -3 37 -6 38 -33 1 -49 3 -55 19 -55 11 0 15 -11 15 -41
l0 -42 -52 7 c-29 3 -61 6 -70 6 -14 0 -18 8 -18 35 0 18 -6 38 -14 42 -7 4
-19 19 -26 32 -9 18 -14 21 -21 10 -4 -8 -4 -16 2 -20 6 -3 1 -9 -10 -12 -19
-5 -21 -1 -22 41 -1 26 0 61 1 78 1 31 1 31 -44 29 -37 -2 -44 1 -35 11 6 7
19 16 30 19 11 4 17 10 14 15 -6 10 14 27 40 32 17 3 21 -3 25 -37 5 -39 6
-40 48 -43z m-157 -272 c52 -45 89 -70 105 -70 17 0 24 -6 24 -19 0 -40 -11
-51 -51 -51 -39 0 -39 0 -39 -40 l0 -40 -40 0 -40 0 0 -43 c0 -39 -4 -47 -42
-78 -27 -22 -57 -36 -83 -39 -37 -5 -40 -7 -43 -40 -2 -24 -15 -47 -40 -72
-20 -21 -40 -38 -45 -38 -5 0 -49 37 -98 82 -85 78 -89 83 -89 124 0 43 0 43
192 219 105 96 195 175 200 175 4 0 44 -31 89 -70z m905 -23 c45 -40 104 -90
132 -112 43 -33 51 -46 52 -72 0 -32 1 -33 47 -33 61 0 103 -36 103 -88 0 -30
-11 -45 -91 -121 -51 -47 -97 -87 -103 -89 -22 -5 -84 71 -88 108 -3 33 -5 35
-45 38 -43 3 -43 3 -43 43 0 38 -1 39 -36 39 -27 0 -48 9 -80 36 -41 33 -44
39 -44 85 l0 49 -45 0 c-45 0 -45 0 -45 34 0 34 1 35 48 38 47 3 47 3 52 43 5
36 8 40 37 43 17 2 37 10 43 18 7 8 15 14 19 14 3 0 43 -33 87 -73z m-342
-213 c-6 -3 -9 -15 -7 -28 3 -13 0 -27 -6 -30 -7 -4 -10 6 -9 29 1 25 6 35 17
34 9 0 11 -3 5 -5z m108 -22 c-7 -2 -12 -10 -12 -18 0 -9 -10 -14 -27 -13 -24
2 -25 2 -5 6 13 3 22 12 22 23 0 14 5 18 17 13 11 -4 12 -8 5 -11z m85 -109
c-3 -10 -5 -4 -5 12 0 17 2 24 5 18 2 -7 2 -21 0 -30z m-27 -13 c0 -5 -8 -10
-17 -10 -15 0 -16 2 -3 10 19 12 20 12 20 0z m-270 -70 c0 -39 1 -40 35 -40
34 0 35 -1 35 -38 0 -34 -8 -46 -79 -116 -43 -43 -83 -77 -89 -75 -5 2 -42 34
-81 71 -68 64 -71 70 -71 113 l0 45 45 0 c44 0 45 0 45 33 0 19 3 37 7 40 3 4
39 7 80 7 l73 0 0 -40z m380 23 c0 -12 -3 -14 -8 -7 -4 7 -16 14 -27 17 -15 4
-14 5 8 6 20 1 27 -4 27 -16z m96 -70 c-7 -7 -87 -5 -95 3 -2 2 20 4 49 4 29
0 50 -3 46 -7z m74 -90 c0 -12 -3 -14 -8 -7 -4 7 -18 14 -32 17 -21 4 -20 4 8
6 24 1 32 -3 32 -16z m40 -67 c0 -9 -30 -14 -35 -6 -4 6 3 10 14 10 12 0 21
-2 21 -4z m27 -48 c-2 -13 -4 -5 -4 17 -1 22 1 32 4 23 2 -10 2 -28 0 -40z
m72 -60 c-2 -30 -2 -30 -6 -6 -3 20 -11 28 -31 31 -24 4 -24 4 6 6 30 1 32 -1
31 -31z"/>
<path d="M724 1835 l-69 -63 32 -33 32 -33 67 60 c37 33 69 65 71 71 2 5 -11
22 -30 36 l-33 25 -70 -63z"/>
<path d="M546 1574 l-49 -45 28 -29 c16 -17 34 -30 40 -30 6 0 30 19 53 43
l42 43 -32 31 -33 31 -49 -44z"/>
<path d="M974 1654 c-19 -8 -4 -43 17 -41 13 1 19 9 19 24 0 22 -11 27 -36 17z"/>
<path d="M806 1282 c-15 -17 -13 -21 19 -52 33 -32 36 -33 51 -18 21 21 14 40
-24 66 -28 21 -30 21 -46 4z"/>
<path d="M636 1127 l-98 -92 34 -33 34 -32 98 92 98 93 -34 32 -33 32 -99 -92z"/>
<path d="M1765 1200 l-29 -30 24 -25 c29 -31 41 -31 70 0 l24 26 -30 30 -30
29 -29 -30z"/>
<path d="M1920 1025 l-23 -25 23 -25 c13 -14 29 -25 35 -25 6 0 22 11 35 25
l23 25 -23 25 c-13 14 -29 25 -35 25 -6 0 -22 -11 -35 -25z"/>
</g>
</svg>
